<?xml version="1.0" encoding="UTF-8"?>
<svg version="1.1" xmlns="http://www.w3.org/2000/svg" width="99" height="23">
<path d="M0 0 C0.96292969 0.34933594 1.92585938 0.69867188 2.91796875 1.05859375 C5 3 5 3 5.3059082 5.41430664 C5.31196476 7.96232342 5.21430641 10.46165966 5 13 C4.27151855 12.90912109 3.54303711 12.81824219 2.79248047 12.72460938 C-15.05381825 10.58404148 -32.71228031 9.70736724 -50.6875 9.75 C-51.64134583 9.75104736 -52.59519165 9.75209473 -53.57794189 9.75317383 C-67.07518816 9.78451755 -80.5240173 10.2572361 -94 11 C-94 6.71 -94 2.42 -94 -2 C-65.59507404 -15.72904755 -28.141902 -13.14223319 0 0 Z " fill="#3ED8D2" transform="translate(94,10)"/>
<path d="M0 0 C0.72733337 0.00054382 1.45466675 0.00108765 2.20404053 0.00164795 C20.29496236 0.06378532 39.5680168 2.77785778 54.875 13.375 C54.875 14.035 54.875 14.695 54.875 15.375 C54.33875 15.19324219 53.8025 15.01148438 53.25 14.82421875 C39.65596512 10.4642898 25.3565006 8.2296584 11.08984375 8.20703125 C10.27854507 8.20297775 9.4672464 8.19892426 8.63136292 8.19474792 C6.02503426 8.1853699 3.41884311 8.18534203 0.8125 8.1875 C-0.5163623 8.18641235 -0.5163623 8.18641235 -1.87207031 8.18530273 C-16.05156196 8.18658571 -30.02523322 8.7701485 -44.125 10.375 C-43.795 9.385 -43.465 8.395 -43.125 7.375 C-40.83680902 6.35634695 -38.68967132 5.5563927 -36.3125 4.8125 C-35.06855469 4.39871094 -33.82460938 3.98492187 -32.54296875 3.55859375 C-21.81897467 0.49744435 -11.0884055 -0.03125095 0 0 Z " fill="#60E0DE" transform="translate(44.125,-0.375)"/>
</svg>
