<?xml version="1.0" encoding="UTF-8"?>
<svg version="1.1" xmlns="http://www.w3.org/2000/svg" width="54" height="56">
<path d="M0 0 C4.73134809 3.83105108 7.77149225 8.56447675 9.6875 14.3125 C10.44515741 23.84815963 10.69117131 32.32792192 4.6875 40.3125 C-0.32502399 46.16468536 -7.24481216 49.62074507 -14.859375 50.66015625 C-24.533283 51.00565296 -31.08156248 48.06212262 -38.26953125 41.73828125 C-43.35017449 35.70562456 -44.97220593 30.1114727 -44.8125 22.3125 C-44.82796875 21.55710937 -44.8434375 20.80171875 -44.859375 20.0234375 C-44.81323495 13.31006025 -42.80926643 8.16811343 -38.3828125 3.10546875 C-26.65482467 -6.57365373 -13.13542198 -9.09566013 0 0 Z " fill="#D4D5D5" transform="translate(44.3125,5.6875)"/>
<path d="M0 0 C5.28394267 2.94844001 8.91543295 7.80879886 10.8125 13.5 C11.35078279 19.85173692 10.48667245 24.22049683 6.8125 29.5 C2.42942442 34.24332836 -2.1635214 36.53935138 -8.5625 36.875 C-14.06150259 36.72884711 -17.73874713 34.87080848 -21.66015625 31.07421875 C-26.24496254 25.90127404 -27.63844025 21.47072899 -27.42578125 14.69921875 C-26.72848801 8.26354508 -22.7780731 4.91009397 -18.125 0.91796875 C-12.90842244 -2.89980878 -5.73296902 -2.50266148 0 0 Z " fill="#CED1D1" transform="translate(35.1875,10.5)"/>
<path d="M0 0 C5.28394267 2.94844001 8.91543295 7.80879886 10.8125 13.5 C11.35078279 19.85173692 10.48667245 24.22049683 6.8125 29.5 C2.42942442 34.24332836 -2.1635214 36.53935138 -8.5625 36.875 C-14.06150259 36.72884711 -17.73874713 34.87080848 -21.66015625 31.07421875 C-26.24496254 25.90127404 -27.63844025 21.47072899 -27.42578125 14.69921875 C-26.72848801 8.26354508 -22.7780731 4.91009397 -18.125 0.91796875 C-12.90842244 -2.89980878 -5.73296902 -2.50266148 0 0 Z M-23.1875 10.5 C-24.91795446 13.96090891 -24.53329074 17.70910888 -24.1875 21.5 C-22.22315961 27.17476113 -18.55949338 30.81400331 -13.1875 33.5 C-7.22388808 34.36608472 -2.84392605 33.54715604 2.08203125 30.046875 C6.08649933 26.46726019 7.60649829 22.94201195 8.375 17.5625 C8.091949 12.70345781 5.97134049 9.11467316 2.8125 5.5 C-1.33505371 1.83615603 -5.57706954 0.84351193 -11.046875 1.11328125 C-16.66176129 2.12764939 -20.02340083 6.04682339 -23.1875 10.5 Z " fill="#149E9E" transform="translate(35.1875,10.5)"/>
</svg>
