<?xml version="1.0" encoding="UTF-8"?>
<svg version="1.1" xmlns="http://www.w3.org/2000/svg" width="67" height="56">
<path d="M0 0 C6.82062227 5.45649782 11.14199911 11.26515872 12.12890625 20.07421875 C12.49700632 29.34796577 10.51338408 36.65425222 4.25 43.625 C-1.37430794 48.78932737 -8.19876531 51.35531262 -15.8125 51.6875 C-24.12044146 51.22841589 -31.23401777 48.06080619 -37.1875 42.25 C-43.43374266 34.06633716 -43.93826215 26.28758717 -43.1875 16.25 C-41.03463345 8.21858076 -36.44118114 2.51457904 -29.33203125 -1.6796875 C-19.30132264 -6.68590637 -9.5087567 -5.22049387 0 0 Z " fill="#D4D4D3" transform="translate(52.1875,4.75)"/>
<path d="M0 0 C3.68069887 1.53643852 5.98775204 3.78150945 8.75 6.625 C9.54921875 7.44226563 10.3484375 8.25953125 11.171875 9.1015625 C12.07679687 10.04128906 12.07679687 10.04128906 13 11 C16.39458023 8.15324828 19.74672619 5.32845827 22.8125 2.125 C25 0 25 0 27 0 C26.48223379 4.10447392 24.35372556 5.95699523 21.4375 8.75 C20.61121094 9.54921875 19.78492187 10.3484375 18.93359375 11.171875 C18.29550781 11.77515625 17.65742187 12.3784375 17 13 C18.8517185 17.35641143 21.90127449 19.92804984 25.3203125 23.09765625 C27 25 27 25 27 28 C23.31930113 26.46356148 21.01224796 24.21849055 18.25 21.375 C17.45078125 20.55773437 16.6515625 19.74046875 15.828125 18.8984375 C15.22484375 18.27195312 14.6215625 17.64546875 14 17 C9.81576108 20.50897269 5.80411834 24.08060535 2 28 C1.01 27.67 0.02 27.34 -1 27 C2.50897269 22.81576108 6.08060535 18.80411834 10 15 C8.46356148 11.31930113 6.21849055 9.01224796 3.375 6.25 C2.55773437 5.45078125 1.74046875 4.6515625 0.8984375 3.828125 C0.27195312 3.22484375 -0.35453125 2.6215625 -1 2 C-0.67 1.34 -0.34 0.68 0 0 Z " fill="#895725" transform="translate(23,14)"/>
<path d="" fill="#DDDDDD" transform="translate(0,0)"/>
</svg>
