<?xml version="1.0" encoding="UTF-8"?>
<svg version="1.1" xmlns="http://www.w3.org/2000/svg" width="58" height="42">
<path d="M0 0 C1.27746094 0.00064453 2.55492188 0.00128906 3.87109375 0.00195312 C4.86471924 0.01440063 4.86471924 0.01440063 5.87841797 0.02709961 C7.8998196 0.05070615 9.91990159 0.04765399 11.94140625 0.04101562 C23.19746332 0.10348617 23.19746332 0.10348617 26.40625 2.36328125 C28.54742444 7.67556215 28.71337695 12.68867085 28.65625 18.36328125 C28.66398437 19.1315625 28.67171875 19.89984375 28.6796875 20.69140625 C28.66325911 25.52135376 28.3943109 29.8844314 26.40625 34.36328125 C21.17922506 37.49777396 14.26981868 36.65604302 8.34375 36.61328125 C6.73016602 36.62488281 6.73016602 36.62488281 5.08398438 36.63671875 C4.04435547 36.63414063 3.00472656 36.6315625 1.93359375 36.62890625 C0.99249756 36.62665039 0.05140137 36.62439453 -0.91821289 36.62207031 C-6.95017622 36.03863376 -10.47454699 32.98476343 -14.71875 28.92578125 C-15.24339844 28.43529297 -15.76804687 27.94480469 -16.30859375 27.43945312 C-17.74646237 26.09076876 -19.17067606 24.72756724 -20.59375 23.36328125 C-21.23054688 22.87730469 -21.86734375 22.39132813 -22.5234375 21.890625 C-23.59375 20.36328125 -23.59375 20.36328125 -23.64453125 17.53125 C-22.29879267 13.47402329 -19.95502658 11.3549433 -16.78125 8.67578125 C-15.97977539 7.96711914 -15.97977539 7.96711914 -15.16210938 7.24414062 C-13.65988857 5.92669483 -12.12756489 4.64380561 -10.59375 3.36328125 C-9.71553589 2.55503906 -9.71553589 2.55503906 -8.81958008 1.73046875 C-5.78272244 -0.134882 -3.54770261 -0.00905026 0 0 Z " fill="#3ED8D2" transform="translate(24.59375,1.63671875)"/>
<path d="M0 0 C3.19407844 2.91633249 3.93801767 4.97371567 4.203125 9.36328125 C4.21859375 10.66652344 4.2340625 11.96976563 4.25 13.3125 C4.27578125 14.60800781 4.3015625 15.90351563 4.328125 17.23828125 C3.9829174 21.19583975 3.00042564 23.60454069 1 27 C-2.53484608 25.47229641 -5.02824941 23.39481316 -7.8125 20.75 C-8.62332031 20.00234375 -9.43414063 19.2546875 -10.26953125 18.484375 C-12 16 -12 16 -12.109375 13.0390625 C-10.71424838 9.21720155 -8.49193143 7.14938652 -5.4375 4.625 C-4.91736328 4.17511719 -4.39722656 3.72523437 -3.86132812 3.26171875 C-2.58540089 2.16137783 -1.29416762 1.07882836 0 0 Z " fill="#F6FDFD" transform="translate(13,6)"/>
<path d="M0 0 C0.66 0.66 1.32 1.32 2 2 C1.45730469 2.47050781 0.91460937 2.94101563 0.35546875 3.42578125 C-0.35996094 4.04839844 -1.07539063 4.67101562 -1.8125 5.3125 C-2.52019531 5.92738281 -3.22789063 6.54226562 -3.95703125 7.17578125 C-5.98244046 8.93276741 -5.98244046 8.93276741 -7.63671875 10.73046875 C-9 12 -9 12 -11 12 C-9.49650623 8.33213607 -7.36271208 6.31089607 -4.375 3.75 C-3.14910156 2.69039062 -3.14910156 2.69039062 -1.8984375 1.609375 C-1.27195312 1.07828125 -0.64546875 0.5471875 0 0 Z " fill="#CEF4F3" transform="translate(13,6)"/>
</svg>
