<?xml version="1.0" encoding="UTF-8"?>
<svg version="1.1" xmlns="http://www.w3.org/2000/svg" width="54" height="51">
<path d="M0 0 C1.27294922 -0.06638672 2.54589844 -0.13277344 3.85742188 -0.20117188 C12.67787692 -0.34161055 17.24800574 1.376219 23.69018555 7.43774414 C24.8026062 8.55137329 24.8026062 8.55137329 25.9375 9.6875 C26.60885986 10.23978271 27.28021973 10.79206543 27.97192383 11.36108398 C29.6875 12.8125 29.6875 12.8125 31.9375 15.6875 C31.90185636 20.05639189 31.43638114 22.10368538 28.57421875 25.453125 C27.60097656 26.27296875 26.62773438 27.0928125 25.625 27.9375 C24.65949219 28.76765625 23.69398437 29.5978125 22.69921875 30.453125 C21.78785156 31.19046875 20.87648437 31.9278125 19.9375 32.6875 C19.26332031 33.25984375 18.58914062 33.8321875 17.89453125 34.421875 C12.75503278 37.74562251 5.88365803 36.87113172 0 36.875 C-0.97646484 36.88724609 -1.95292969 36.89949219 -2.95898438 36.91210938 C-8.02414011 36.92241139 -12.36595699 36.83624517 -17.0625 34.6875 C-21.84525091 28.53824883 -20.54704147 17.17717543 -19.75390625 9.828125 C-18.9288937 4.77583576 -18.9288937 4.77583576 -18.0625 2.6875 C-12.82449032 -0.77102358 -6.02934543 0.11060277 0 0 Z " fill="#3ED8D2" transform="translate(21.0625,3.3125)"/>
<path d="M0 0 C5.67558852 1.96156305 9.44916313 5.1835183 13 10 C13.625 13.4375 13.625 13.4375 12 17 C8.91892186 20.33204984 5.66032177 23.31413994 2 26 C1.34 26 0.68 26 0 26 C-3.60144039 19.54741931 -3.72854419 13.28544185 -3 6 C-2.24733798 3.59494204 -1.43384956 2.09103061 0 0 Z " fill="#F0FCFC" transform="translate(40,9)"/>
</svg>
