<?xml version="1.0" encoding="UTF-8"?>
<svg version="1.1" xmlns="http://www.w3.org/2000/svg" width="39" height="61">
<path d="M0 0 C4.5390757 0.09975991 6.54789279 0.60813476 10.01953125 3.6171875 C10.96794812 4.68793831 11.89881936 5.77445943 12.8125 6.875 C13.28880859 7.41769531 13.76511719 7.96039063 14.25585938 8.51953125 C20.99285572 16.27039343 21.18100026 22.05138812 21.1875 31.9375 C21.19974609 32.91396484 21.21199219 33.89042969 21.22460938 34.89648438 C21.24432344 44.58923186 21.24432344 44.58923186 19 49 C12.65134472 53.84315761 0.94167419 52.14701544 -6.5625 51.44921875 C-9.28455329 50.94755829 -11.53038093 50.2562472 -14 49 C-17.12531701 39.62404896 -17.95931395 22.22092341 -13.63769531 13.13623047 C-10.14172597 8.22503728 -5.83185166 4.55371043 -1 1 C-0.67 0.67 -0.34 0.34 0 0 Z " fill="#3ED8D2" transform="translate(17,1)"/>
<path d="M0 0 C5.40168315 2.60438295 8.97950962 6.8897342 12.5 11.6875 C12.5 12.3475 12.5 13.0075 12.5 13.6875 C5.60897267 16.48385892 -1.36637938 18.28258927 -8.6875 16.0078125 C-10.32745543 15.31347653 -11.92109313 14.5112775 -13.5 13.6875 C-12.56663388 7.13888288 -6.28017461 1.23360573 0 0 Z " fill="#F3FCFC" transform="translate(20.5,0.3125)"/>
</svg>
