<?xml version="1.0" encoding="UTF-8"?>
<svg version="1.1" xmlns="http://www.w3.org/2000/svg" width="39" height="56">
<path d="M0 0 C0.95390625 -0.00257812 1.9078125 -0.00515625 2.890625 -0.0078125 C4.36789063 0.00378906 4.36789063 0.00378906 5.875 0.015625 C6.85984375 0.00789062 7.8446875 0.00015625 8.859375 -0.0078125 C9.81328125 -0.00523438 10.7671875 -0.00265625 11.75 0 C12.61367188 0.00225586 13.47734375 0.00451172 14.3671875 0.00683594 C17.25366568 0.3047007 19.31343869 0.89475554 21.875 2.265625 C25.44572095 7.10859369 24.4118898 14.16346181 24.5 19.890625 C24.55800781 21.12425781 24.61601563 22.35789062 24.67578125 23.62890625 C24.78791043 31.74533364 23.51081697 36.18221015 17.96923828 42.18676758 C17.27813965 42.87279053 16.58704102 43.55881348 15.875 44.265625 C14.62296923 45.61791429 13.37259103 46.97173863 12.125 48.328125 C9.85683883 50.66785436 8.19953987 52.03546455 4.875 52.265625 C-1.92862743 48.30637122 -9.64466354 39.70663437 -12.125 32.265625 C-12.35919897 28.14451042 -12.3101762 24.0176879 -12.3125 19.890625 C-12.32474609 18.75367187 -12.33699219 17.61671875 -12.34960938 16.4453125 C-12.35154297 15.34703125 -12.35347656 14.24875 -12.35546875 13.1171875 C-12.35957764 12.11510254 -12.36368652 11.11301758 -12.36791992 10.08056641 C-12.10235019 7.00316036 -11.66688781 4.94921157 -10.125 2.265625 C-6.7557372 0.3711285 -3.82258119 0.00998435 0 0 Z " fill="#3ED8D2" transform="translate(13.125,0.734375)"/>
<path d="M0 0 C-0.54083508 4.00584629 -2.49490558 5.89757427 -5.3125 8.6875 C-6.09238281 9.47511719 -6.87226563 10.26273438 -7.67578125 11.07421875 C-11.14499789 13.94871254 -11.14499789 13.94871254 -14 14 C-18.69327263 11.04837151 -22.88017295 6.54974779 -26 2 C-26 1.34 -26 0.68 -26 0 C-16.54650723 -4.12516048 -9.54586686 -3.79126627 0 0 Z " fill="#F0FCFB" transform="translate(32,39)"/>
</svg>
