<?xml version="1.0" encoding="UTF-8"?>
<svg version="1.1" xmlns="http://www.w3.org/2000/svg" width="130" height="132">
<path d="M0 0 C14.94881513 8.80471497 22.01331516 21.39352667 26.94140625 37.62890625 C27.44027344 39.2538501 27.44027344 39.2538501 27.94921875 40.91162109 C32.56517188 56.4645306 35.79635701 72.38679279 39.12890625 88.25390625 C31.0885697 88.39875905 23.19988857 87.92573589 15.19140625 87.25390625 C-3.12851249 85.83837627 -21.46521201 85.6701895 -39.80273438 86.89550781 C-46.8300901 87.36109525 -53.83024635 87.34736883 -60.87109375 87.25390625 C-61.08689895 78.22278541 -60.51745239 69.35444985 -59.69921875 60.37158203 C-59.49582661 58.1259568 -59.30405506 55.87954099 -59.11328125 53.6328125 C-57.41349466 34.19833115 -53.69940674 18.14364833 -38.1484375 5.01171875 C-27.1669273 -3.46457557 -12.97162237 -6.29924809 0 0 Z " fill="#3DD8D2" transform="translate(62.87109375,19.74609375)"/>
<path d="M0 0 C0.99 3.96 0.99 3.96 2 8 C-6.04033655 8.1448528 -13.92901768 7.67182964 -21.9375 7 C-40.25741874 5.58447002 -58.59411826 5.41628325 -76.93164062 6.64160156 C-83.95899635 7.107189 -90.9591526 7.09346258 -98 7 C-98 4.69 -98 2.38 -98 0 C-66.64176881 -5.59198242 -31.21725787 -7.80431447 0 0 Z " fill="#5EDFDE" transform="translate(100,100)"/>
<path d="M0 0 C1.60875 -0.04125 3.2175 -0.0825 4.875 -0.125 C5.77992187 -0.14820312 6.68484375 -0.17140625 7.6171875 -0.1953125 C10 0 10 0 12 2 C11.68143549 4.00240549 11.34578768 6.00211562 11 8 C11.37617294 11.26410357 11.37617294 11.26410357 12 14 C11.01 14 10.02 14 9 14 C8.7525 13.195625 8.505 12.39125 8.25 11.5625 C7.27761141 8.828919 7.27761141 8.828919 4.875 8.1875 C4.25625 8.125625 3.6375 8.06375 3 8 C3 9.98 3 11.96 3 14 C2.01 14 1.02 14 0 14 C0 9.38 0 4.76 0 0 Z " fill="#39C7C2" transform="translate(32,76)"/>
<path d="M0 0 C2.875 -0.125 2.875 -0.125 6 0 C6.66 0.66 7.32 1.32 8 2 C7.77256695 4.95662966 7.38764062 6.55033688 5.4375 8.8125 C4.963125 9.204375 4.48875 9.59625 4 10 C5.32 10.33 6.64 10.66 8 11 C8 11.99 8 12.98 8 14 C5.03 14 2.06 14 -1 14 C-0.75 11.6875 -0.75 11.6875 0 9 C1.31337396 7.9739266 2.64664105 6.97272675 4 6 C4.79623822 3.90584196 4.79623822 3.90584196 5 2 C3.02 2.66 1.04 3.32 -1 4 C-0.67 2.68 -0.34 1.36 0 0 Z " fill="#39C8C3" transform="translate(49,76)"/>
<path d="M0 0 C1.65 0 3.3 0 5 0 C5 1.32 5 2.64 5 4 C3.35 4 1.7 4 0 4 C0 2.68 0 1.36 0 0 Z " fill="#3DD6D0" transform="translate(35,78)"/>
</svg>
