<?xml version="1.0" encoding="UTF-8"?>
<svg version="1.1" xmlns="http://www.w3.org/2000/svg" width="61" height="56">
<path d="M0 0 C6.82062227 5.45649782 11.14199911 11.26515872 12.12890625 20.07421875 C12.49700632 29.34796577 10.51338408 36.65425222 4.25 43.625 C-1.37430794 48.78932737 -8.19876531 51.35531262 -15.8125 51.6875 C-24.12044146 51.22841589 -31.23401777 48.06080619 -37.1875 42.25 C-43.43374266 34.06633716 -43.93826215 26.28758717 -43.1875 16.25 C-41.03463345 8.21858076 -36.44118114 2.51457904 -29.33203125 -1.6796875 C-19.30132264 -6.68590637 -9.5087567 -5.22049387 0 0 Z " fill="#D5D5D5" transform="translate(46.1875,4.75)"/>
<path d="M0 0 C9.57 0 19.14 0 29 0 C29 9.57 29 19.14 29 29 C19.43 29 9.86 29 0 29 C0 19.43 0 9.86 0 0 Z " fill="#D1D2D1" transform="translate(16,13)"/>
<path d="M0 0 C9.57 0 19.14 0 29 0 C29 9.57 29 19.14 29 29 C19.43 29 9.86 29 0 29 C0 19.43 0 9.86 0 0 Z M3 4 C3 11.26 3 18.52 3 26 C10.59 26 18.18 26 26 26 C26 18.74 26 11.48 26 4 C18.41 4 10.82 4 3 4 Z " fill="#23A029" transform="translate(16,13)"/>
<path d="M0 0 C0.33 0 0.66 0 1 0 C1 1.98 1 3.96 1 6 C0.67 6 0.34 6 0 6 C0 4.02 0 2.04 0 0 Z " fill="#DCDCDC" transform="translate(59,23)"/>
</svg>
