<?xml version="1.0" encoding="UTF-8"?>
<svg version="1.1" xmlns="http://www.w3.org/2000/svg" width="111" height="104">
<path d="M0 0 C1.41345703 0.76376953 1.41345703 0.76376953 2.85546875 1.54296875 C14.34022589 8.31603065 21.97121846 18.44303311 25.67578125 31.35546875 C27.03757733 42.46313078 27.24091389 53.89486291 22 64 C21.5875 64.84691406 21.175 65.69382812 20.75 66.56640625 C14.56020555 78.08434763 5.02096613 84.43919984 -7 89 C-17.90273324 92.1651295 -32.01975663 91.25275967 -42 86 C-42.845625 85.5875 -43.69125 85.175 -44.5625 84.75 C-56.08433578 78.56755153 -62.43988402 69.01916282 -67 57 C-70.1651295 46.09726676 -69.25275967 31.98024337 -64 22 C-63.5875 21.154375 -63.175 20.30875 -62.75 19.4375 C-56.56755153 7.91566422 -47.01916282 1.56011598 -35 -3 C-24.17300172 -6.14314318 -9.87480677 -5.33901036 0 0 Z " fill="#494847" transform="translate(84,14)"/>
</svg>
