<?xml version="1.0" encoding="UTF-8"?>
<svg version="1.1" xmlns="http://www.w3.org/2000/svg" width="97" height="112">
<path d="M0 0 C1.41345703 0.76376953 1.41345703 0.76376953 2.85546875 1.54296875 C14.34022589 8.31603065 21.97121846 18.44303311 25.67578125 31.35546875 C27.03757733 42.46313078 27.24091389 53.89486291 22 64 C21.5875 64.84691406 21.175 65.69382812 20.75 66.56640625 C14.56020555 78.08434763 5.02096613 84.43919984 -7 89 C-17.90273324 92.1651295 -32.01975663 91.25275967 -42 86 C-42.845625 85.5875 -43.69125 85.175 -44.5625 84.75 C-56.08433578 78.56755153 -62.43988402 69.01916282 -67 57 C-70.1651295 46.09726676 -69.25275967 31.98024337 -64 22 C-63.5875 21.154375 -63.175 20.30875 -62.75 19.4375 C-56.56755153 7.91566422 -47.01916282 1.56011598 -35 -3 C-24.17300172 -6.14314318 -9.87480677 -5.33901036 0 0 Z " fill="#3AD7D0" transform="translate(69,12)"/>
<path d="M0 0 C6.05744429 4.46736517 10.76129346 10.10360964 12.1875 17.61328125 C13.1850157 26.34434566 12.43570025 33.40017511 7.1875 40.61328125 C2.05389928 46.29460924 -3.33053548 50.12623016 -11.01171875 50.9609375 C-20.18263766 51.34760327 -26.97667994 49.9911638 -33.875 43.74609375 C-40.77884325 36.35322827 -42.47423761 30.1489823 -42.21875 20.12109375 C-41.37169464 12.80709652 -38.26919656 7.65479749 -32.9375 2.67578125 C-23.24935328 -4.93120802 -10.94676744 -6.39161586 0 0 Z " fill="#1FD2C6" transform="translate(62.8125,31.38671875)"/>
</svg>
