<?xml version="1.0" encoding="UTF-8"?>
<svg version="1.1" xmlns="http://www.w3.org/2000/svg" width="62" height="59">
<path d="M0 0 C5.80675881 4.76271531 9.1590755 10.57394194 10.46484375 17.96484375 C11.26022196 26.35119999 9.35856447 33.29983698 4.6875 40.3125 C-0.26505984 46.18500098 -7.28572857 49.62633028 -14.859375 50.66015625 C-23.21037243 50.95840616 -29.68731881 48.97921524 -36.125 43.625 C-41.15450927 38.86759332 -44.9124918 33.00490393 -45.515625 25.9296875 C-45.69297723 15.55458191 -43.73528635 8.8827097 -36.5 1.26171875 C-26.09370214 -8.01103595 -11.26320642 -7.79923916 0 0 Z " fill="#D5D4D4" transform="translate(47.3125,5.6875)"/>
<path d="M0 0 C3.15296341 2.91912294 5.29508956 5.86230346 7.453125 9.5703125 C8.071875 10.63121094 8.690625 11.69210938 9.328125 12.78515625 C9.96234375 13.88730469 10.5965625 14.98945313 11.25 16.125 C11.8996875 17.23488281 12.549375 18.34476563 13.21875 19.48828125 C18 27.73493304 18 27.73493304 18 30 C6.45 30 -5.1 30 -17 30 C-13.11716938 22.88147719 -9.20541777 15.81462994 -5.125 8.8125 C-4.62742187 7.95591797 -4.12984375 7.09933594 -3.6171875 6.21679688 C-2.41275032 4.14377518 -1.20701731 2.0715201 0 0 Z " fill="#D2CFD0" transform="translate(29,9)"/>
<path d="M0 0 C3.15296341 2.91912294 5.29508956 5.86230346 7.453125 9.5703125 C8.071875 10.63121094 8.690625 11.69210938 9.328125 12.78515625 C9.96234375 13.88730469 10.5965625 14.98945313 11.25 16.125 C11.8996875 17.23488281 12.549375 18.34476563 13.21875 19.48828125 C18 27.73493304 18 27.73493304 18 30 C6.45 30 -5.1 30 -17 30 C-13.11716938 22.88147719 -9.20541777 15.81462994 -5.125 8.8125 C-4.62742187 7.95591797 -4.12984375 7.09933594 -3.6171875 6.21679688 C-2.41275032 4.14377518 -1.20701731 2.0715201 0 0 Z M0 6 C-2.00354042 9.31037097 -4.00223552 12.62364067 -6 15.9375 C-6.85851562 17.35579102 -6.85851562 17.35579102 -7.734375 18.80273438 C-8.27578125 19.70185547 -8.8171875 20.60097656 -9.375 21.52734375 C-9.87773437 22.35999756 -10.38046875 23.19265137 -10.8984375 24.05053711 C-12.08199218 25.77190999 -12.08199218 25.77190999 -12 27 C-3.75 27 4.5 27 13 27 C11.28515779 22.71289447 9.33677188 18.80603796 7.0625 14.8125 C6.71509766 14.18408203 6.36769531 13.55566406 6.00976562 12.90820312 C4.22724889 9.76949663 3.05400593 8.03600395 0 6 Z " fill="#C02C69" transform="translate(29,9)"/>
<path d="" fill="#DEDEDE" transform="translate(0,0)"/>
</svg>
